<?xml version="1.0" encoding="UTF-8" standalone="no"?> <svg width="24" height="24" viewBox="0 0 24 24" fill="none" xmlns="http://www.w3.org/2000/svg">
<path fill-rule="evenodd" clip-rule="evenodd" d="M6 3C5.68524 3 5.38885 3.14819 5.2 3.4L3.2 6.06667C3.07018 6.23976 3 6.4503 3 6.66667V9.5C3 10.2245 3.51468 10.8311 4.19893 10.97C4.29538 10.9896 4.39595 11 4.5 11C5.32843 11 6 10.3284 6 9.5V9C6 8.44772 6.44772 8 7 8C7.55228 8 8 8.44772 8 9V9.5C8 10.3284 8.67157 11 9.5 11C10.3284 11 11 10.3284 11 9.5V9C11 8.44772 11.4477 8 12 8C12.5523 8 13 8.44772 13 9V9.5C13 10.3284 13.6716 11 14.5 11C15.3284 11 16 10.3284 16 9.5V9C16 8.44772 16.4477 8 17 8C17.5523 8 18 8.44772 18 9V9.5C18 10.3284 18.6716 11 19.5 11C19.604 11 19.7046 10.9896 19.8011 10.97C20.4853 10.8311 21 10.2245 21 9.5V6.66667C21 6.4503 20.9298 6.23976 20.8 6.06667L18.8 3.4C18.6111 3.1482 18.3148 3 18 3H6ZM17 11.9495C16.3647 12.5978 15.4793 13 14.5 13C13.5207 13 12.6353 12.5978 12 11.9495C11.3647 12.5978 10.4793 13 9.5 13C8.52065 13 7.63526 12.5978 7 11.9495C6.47486 12.4854 5.77878 12.8532 5 12.9646V20C5 20.5523 5.44771 21 6 21H8V18C8 16.3431 9.34315 15 11 15H13C14.6569 15 16 16.3431 16 18V21H18C18.5523 21 19 20.5523 19 20V12.9646C18.2212 12.8532 17.5251 12.4854 17 11.9495ZM21 12.6629C22.1824 12.1012 23 10.8968 23 9.5V6.66667C23 6.01756 22.7895 5.38596 22.4 4.86667L20.4 2.2C19.8334 1.44458 18.9443 1 18 1H6C5.05573 1 4.16656 1.44458 3.6 2.2L1.6 4.86667C1.21053 5.38595 1 6.01756 1 6.66667V9.5C1 10.8968 1.81758 12.1012 3 12.6629V20C3 21.6569 4.34315 23 6 23H18C19.6569 23 21 21.6569 21 20V12.6629ZM14 21V18C14 17.4477 13.5523 17 13 17H11C10.4477 17 10 17.4477 10 18V21H14Z" fill="#293644"/>
</svg>
