<?xml version="1.0" encoding="UTF-8" standalone="no"?> <svg width="24" height="24" viewBox="0 0 24 24" fill="none" xmlns="http://www.w3.org/2000/svg">
<path fill-rule="evenodd" clip-rule="evenodd" d="M9.72026 1.1269C10.9177 -0.273095 13.0824 -0.273094 14.2799 1.1269L14.7903 1.72367C15.0344 2.00904 15.4178 2.13361 15.783 2.04621L16.5467 1.86344C18.3384 1.43468 20.0896 2.70703 20.2355 4.54351L20.2977 5.32634C20.3274 5.70067 20.5644 6.0268 20.9112 6.17075L21.6365 6.4718C23.338 7.17804 24.0069 9.23675 23.0455 10.8082L22.6357 11.4781C22.4397 11.7984 22.4397 12.2015 22.6356 12.5219L23.0455 13.1917C24.0069 14.7632 23.338 16.8219 21.6365 17.5282L20.9112 17.8292C20.5644 17.9732 20.3274 18.2993 20.2977 18.6736L20.2355 19.4565C20.0896 21.2929 18.3384 22.5653 16.5467 22.1365L15.783 21.9538C15.4178 21.8664 15.0344 21.9909 14.7903 22.2763L14.2799 22.8731C13.0824 24.2731 10.9177 24.2731 9.72026 22.8731L9.20982 22.2763C8.96573 21.9909 8.58235 21.8664 8.21715 21.9538L7.45341 22.1365C5.66174 22.5653 3.9105 21.2929 3.76462 19.4565L3.70244 18.6736C3.6727 18.2993 3.43576 17.9732 3.08893 17.8292L2.36363 17.5282C0.662122 16.8219 -0.0067932 14.7632 0.954641 13.1917L1.36447 12.5219C1.56044 12.2015 1.56044 11.7984 1.36447 11.4781L0.954641 10.8082C-0.0067929 9.23675 0.662122 7.17804 2.36363 6.4718L3.08893 6.17075C3.43576 6.0268 3.6727 5.70067 3.70244 5.32634L3.76462 4.54351C3.9105 2.70703 5.66174 1.43468 7.45341 1.86344L8.21715 2.04621C8.58235 2.13361 8.96573 2.00904 9.20982 1.72367L9.72026 1.1269ZM12.76 2.4269C12.3608 1.96024 11.6393 1.96024 11.2401 2.4269L10.7297 3.02367C9.99743 3.87977 8.84728 4.25348 7.75167 3.99129L6.98794 3.80852C6.39072 3.6656 5.80697 4.08972 5.75834 4.70188L5.69616 5.48471C5.60695 6.60771 4.89612 7.58609 3.85565 8.01795L3.13035 8.319C2.56318 8.55442 2.3402 9.24065 2.66068 9.76448L3.07051 10.4344C3.65843 11.3953 3.65843 12.6047 3.07051 13.5656L2.66068 14.2355C2.3402 14.7593 2.56318 15.4456 3.13035 15.681L3.85565 15.982C4.89612 16.4139 5.60695 17.3923 5.69616 18.5153L5.75834 19.2981C5.80697 19.9103 6.39072 20.3344 6.98794 20.1915L7.75167 20.0087C8.84728 19.7465 9.99743 20.1202 10.7297 20.9763L11.2401 21.5731C11.6393 22.0397 12.3608 22.0397 12.76 21.5731L13.2704 20.9763C14.0027 20.1202 15.1528 19.7465 16.2484 20.0087L17.0122 20.1915C17.6094 20.3344 18.1931 19.9103 18.2418 19.2981L18.304 18.5153C18.3932 17.3923 19.104 16.4139 20.1445 15.982L20.8698 15.681C21.4369 15.4456 21.6599 14.7593 21.3394 14.2355L20.9296 13.5656C20.3417 12.6047 20.3417 11.3953 20.9296 10.4344L21.3394 9.76448C21.6599 9.24065 21.4369 8.55441 20.8698 8.319L20.1445 8.01795C19.104 7.58609 18.3932 6.60772 18.304 5.48471L18.2418 4.70188C18.1931 4.08972 17.6094 3.6656 17.0122 3.80852L16.2484 3.99129C15.1528 4.25348 14.0027 3.87977 13.2704 3.02368L12.76 2.4269ZM10.7072 8.29288C11.0977 8.6834 11.0977 9.31657 10.7072 9.70709L9.70717 10.7071C9.31664 11.0976 8.68348 11.0976 8.29295 10.7071C7.90243 10.3166 7.90243 9.68341 8.29295 9.29288L9.29295 8.29288C9.68348 7.90236 10.3166 7.90236 10.7072 8.29288ZM15.7072 8.29288C16.0977 8.6834 16.0977 9.31657 15.7072 9.7071L9.70717 15.7071C9.31664 16.0976 8.68348 16.0976 8.29295 15.7071C7.90243 15.3166 7.90243 14.6834 8.29295 14.2929L14.293 8.29288C14.6835 7.90236 15.3166 7.90236 15.7072 8.29288ZM15.7072 13.2929C16.0977 13.6834 16.0977 14.3166 15.7072 14.7071L14.7072 15.7071C14.3166 16.0976 13.6835 16.0976 13.293 15.7071C12.9024 15.3166 12.9024 14.6834 13.293 14.2929L14.293 13.2929C14.6835 12.9024 15.3166 12.9024 15.7072 13.2929Z" fill="#293644"/>
</svg>
