<?xml version="1.0" encoding="UTF-8" standalone="no"?> <svg width="24" height="24" viewBox="0 0 24 24" fill="none" xmlns="http://www.w3.org/2000/svg">
<path fill-rule="evenodd" clip-rule="evenodd" d="M6 3C4.34315 3 3 4.34315 3 6C3 7.65685 4.34315 9 6 9C7.10917 9 8.07904 8.39859 8.59927 7.49927C8.85393 7.05903 9 6.54809 9 6C9 5.45191 8.85393 4.94097 8.59927 4.50073C8.07904 3.60141 7.10917 3 6 3ZM1 6C1 3.23858 3.23858 1 6 1C7.63693 1 9.08911 1.78702 10.0002 3H20C21.6569 3 23 4.34315 23 6C23 7.65685 21.6569 9 20 9H10.0002C9.08911 10.213 7.63693 11 6 11C3.23858 11 1 8.76142 1 6ZM10.8998 7H20C20.5523 7 21 6.55228 21 6C21 5.44772 20.5523 5 20 5H10.8998C10.9655 5.3234 11 5.65789 11 6C11 6.34211 10.9655 6.6766 10.8998 7ZM18 15C16.8908 15 15.921 15.6014 15.4007 16.5007C15.1461 16.941 15 17.4519 15 18C15 18.5481 15.1461 19.059 15.4007 19.4993C15.921 20.3986 16.8908 21 18 21C19.6569 21 21 19.6569 21 18C21 16.3431 19.6569 15 18 15ZM13.9998 15C14.9109 13.787 16.3631 13 18 13C20.7614 13 23 15.2386 23 18C23 20.7614 20.7614 23 18 23C16.3631 23 14.9109 22.213 13.9998 21H4C2.34315 21 1 19.6569 1 18C1 16.3431 2.34315 15 4 15H13.9998ZM13.1002 17H4C3.44772 17 3 17.4477 3 18C3 18.5523 3.44772 19 4 19H13.1002C13.0345 18.6766 13 18.3421 13 18C13 17.6579 13.0345 17.3234 13.1002 17Z" fill="#293644"/>
</svg>
