<?xml version="1.0" encoding="UTF-8" standalone="no"?> <svg width="24" height="24" viewBox="0 0 24 24" fill="none" xmlns="http://www.w3.org/2000/svg">
<path fill-rule="evenodd" clip-rule="evenodd" d="M0 3C0 2.44772 0.447715 2 1 2H4.4914C5.83084 2 7.008 2.88793 7.37597 4.17584L7.89716 6H20.9384C22.8902 6 24.3222 7.83417 23.8489 9.72761L22.3489 15.7276C22.015 17.0631 20.8151 18 19.4384 18H11.5086C10.1692 18 8.992 17.1121 8.62403 15.8242L5.45292 4.72528C5.33026 4.29598 4.93788 4 4.4914 4H1C0.447715 4 0 3.55228 0 3ZM8.46859 8L10.5471 15.2747C10.6697 15.704 11.0621 16 11.5086 16H19.4384C19.8973 16 20.2973 15.6877 20.4086 15.2425L21.9086 9.24254C22.0664 8.61139 21.589 8 20.9384 8H8.46859ZM10 21C10 20.4477 10.4477 20 11 20H12C12.5523 20 13 20.4477 13 21C13 21.5523 12.5523 22 12 22H11C10.4477 22 10 21.5523 10 21ZM18 21C18 20.4477 18.4477 20 19 20H20C20.5523 20 21 20.4477 21 21C21 21.5523 20.5523 22 20 22H19C18.4477 22 18 21.5523 18 21Z" fill="#293644"/>
</svg>
